<?xml version="1.0" encoding="UTF-8"?>
<svg width="24px" height="24px" viewBox="0 0 24 24" stroke-width="1.5" fill="none" xmlns="http://www.w3.org/2000/svg" color="#ffffff">
  <path d="M12 2C6.477 2 2 6.477 2 12C2 17.523 6.477 22 12 22C17.523 22 22 17.523 22 12C22 6.477 17.523 2 12 2Z" stroke="#ffffff" stroke-width="1.5" stroke-linecap="round" stroke-linejoin="round"></path>
  <path d="M4.271 18.346C4.271 18.346 6.5 15.5 12 15.5C17.5 15.5 19.729 18.346 19.729 18.346" stroke="#ffffff" stroke-width="1.5" stroke-linecap="round" stroke-linejoin="round"></path>
  <path d="M12 12C13.6569 12 15 10.6569 15 9C15 7.34315 13.6569 6 12 6C10.3431 6 9 7.34315 9 9C9 10.6569 10.3431 12 12 12Z" stroke="#ffffff" stroke-width="1.5" stroke-linecap="round" stroke-linejoin="round"></path>
</svg>
